HIERARCHY
ROOT Hips
{
  OFFSET 5.84602e-005 68.8428 3.50346
  CHANNELS 6 Xposition Yposition Zposition Zrotation Xrotation Yrotation
  JOINT Spine
  {
    OFFSET 0 8.597 -4.6522
    CHANNELS 3 Zrotation Xrotation Yrotation
    JOINT Spine1
    {
      OFFSET 0 7.8454 0.4098
      CHANNELS 3 Zrotation Xrotation Yrotation
      JOINT Spine2
      {
        OFFSET 0 9.7078 -2.1609
        CHANNELS 3 Zrotation Xrotation Yrotation
        JOINT Neck
        {
          OFFSET 0 21.8761 -0.4549
          CHANNELS 3 Zrotation Xrotation Yrotation
          JOINT Head
          {
            OFFSET 0 12.3537 3.3602
            CHANNELS 3 Zrotation Xrotation Yrotation
            End Site
            {
              OFFSET 0.0001 18.9506 0.5657
            }
          }
        }
        JOINT LeftShoulder
        {
          OFFSET 2.2086 21.1115 7.2329
          CHANNELS 3 Zrotation Xrotation Yrotation
          JOINT LeftArm
          {
            OFFSET 13.1193 3.0282 -4.8998
            CHANNELS 3 Zrotation Xrotation Yrotation
            JOINT LeftForeArm
            {
              OFFSET 27.4081 -0.0973053 -0.2375
              CHANNELS 3 Zrotation Xrotation Yrotation
              JOINT LeftHand
              {
                OFFSET 22.8641 0.0662994 -0.1369
                CHANNELS 3 Zrotation Xrotation Yrotation
                JOINT LeftHandIndex1
                {
                  OFFSET 8.8614 0.775009 2.4612
                  CHANNELS 3 Zrotation Xrotation Yrotation
                  JOINT LeftHandIndex2
                  {
                    OFFSET 3.3146 -0.808304 0.5841
                    CHANNELS 3 Zrotation Xrotation Yrotation
                    JOINT LeftHandIndex3
                    {
                      OFFSET 2.2628 -0.552002 0.3989
                      CHANNELS 3 Zrotation Xrotation Yrotation
                      End Site
                      {
                        OFFSET 1.6102 -0.4807 0.2612
                      }
                    }
                  }
                }
                JOINT LeftHandMiddle1
                {
                  OFFSET 8.9937 0.895004 0.2143
                  CHANNELS 3 Zrotation Xrotation Yrotation
                  JOINT LeftHandMiddle2
                  {
                    OFFSET 4.0984 0.0113983 -0.0242
                    CHANNELS 3 Zrotation Xrotation Yrotation
                    JOINT LeftHandMiddle3
                    {
                      OFFSET 2.2716 0.00689697 -0.0138001
                      CHANNELS 3 Zrotation Xrotation Yrotation
                      End Site
                      {
                        OFFSET 2.0404 -0.1441 0.0027
                      }
                    }
                  }
                }
                JOINT LeftHandRing1
                {
                  OFFSET 8.5234 0.597198 -2.0164
                  CHANNELS 3 Zrotation Xrotation Yrotation
                  JOINT LeftHandRing2
                  {
                    OFFSET 3.7188 -0.188293 -0.2328
                    CHANNELS 3 Zrotation Xrotation Yrotation
                    JOINT LeftHandRing3
                    {
                      OFFSET 2.1191 -0.106598 -0.1332
                      CHANNELS 3 Zrotation Xrotation Yrotation
                      End Site
                      {
                        OFFSET 1.8737 -0.2304 -0.0886
                      }
                    }
                  }
                }
                JOINT LeftHandPinky1
                {
                  OFFSET 7.9094 -0.601089 -3.4825
                  CHANNELS 3 Zrotation Xrotation Yrotation
                  JOINT LeftHandPinky2
                  {
                    OFFSET 2.2874 -0.477005 -0.6314
                    CHANNELS 3 Zrotation Xrotation Yrotation
                    JOINT LeftHandPinky3
                    {
                      OFFSET 1.6774 -0.349396 -0.4633
                      CHANNELS 3 Zrotation Xrotation Yrotation
                      End Site
                      {
                        OFFSET 1.4888 -0.4091 -0.3416
                      }
                    }
                  }
                }
                JOINT LeftHandThumb1
                {
                  OFFSET 1.833 -1.3875 1.3896
                  CHANNELS 3 Zrotation Xrotation Yrotation
                  JOINT LeftHandThumb2
                  {
                    OFFSET 3.4129 -1.121 2.5732
                    CHANNELS 3 Zrotation Xrotation Yrotation
                    JOINT LeftHandThumb3
                    {
                      OFFSET 2.2474 -0.804199 1.6192
                      CHANNELS 3 Zrotation Xrotation Yrotation
                      End Site
                      {
                        OFFSET 1.6527 -0.5689 1.1317
                      }
                    }
                  }
                }
              }
            }
          }
        }
        JOINT RightShoulder
        {
          OFFSET -2.2086 21.1115 7.2329
          CHANNELS 3 Zrotation Xrotation Yrotation
          JOINT RightArm
          {
            OFFSET -13.1216 3.0287 -4.9007
            CHANNELS 3 Zrotation Xrotation Yrotation
            JOINT RightForeArm
            {
              OFFSET -27.4081 -0.0973053 -0.2375
              CHANNELS 3 Zrotation Xrotation Yrotation
              JOINT RightHand
              {
                OFFSET -22.8641 0.0664063 -0.1369
                CHANNELS 3 Zrotation Xrotation Yrotation
                JOINT RightHandIndex1
                {
                  OFFSET -8.8614 0.774994 2.4612
                  CHANNELS 3 Zrotation Xrotation Yrotation
                  JOINT RightHandIndex2
                  {
                    OFFSET -3.3146 -0.808304 0.5841
                    CHANNELS 3 Zrotation Xrotation Yrotation
                    JOINT RightHandIndex3
                    {
                      OFFSET -2.2628 -0.552002 0.3989
                      CHANNELS 3 Zrotation Xrotation Yrotation
                      End Site
                      {
                        OFFSET -1.6102 -0.4807 0.2612
                      }
                    }
                  }
                }
                JOINT RightHandMiddle1
                {
                  OFFSET -8.9937 0.894989 0.2143
                  CHANNELS 3 Zrotation Xrotation Yrotation
                  JOINT RightHandMiddle2
                  {
                    OFFSET -4.0984 0.0113983 -0.0242
                    CHANNELS 3 Zrotation Xrotation Yrotation
                    JOINT RightHandMiddle3
                    {
                      OFFSET -2.2716 0.00691223 -0.0138001
                      CHANNELS 3 Zrotation Xrotation Yrotation
                      End Site
                      {
                        OFFSET -2.0404 -0.1441 0.0027
                      }
                    }
                  }
                }
                JOINT RightHandRing1
                {
                  OFFSET -8.5234 0.597198 -2.0164
                  CHANNELS 3 Zrotation Xrotation Yrotation
                  JOINT RightHandRing2
                  {
                    OFFSET -3.7188 -0.188309 -0.2328
                    CHANNELS 3 Zrotation Xrotation Yrotation
                    JOINT RightHandRing3
                    {
                      OFFSET -2.1191 -0.106598 -0.1332
                      CHANNELS 3 Zrotation Xrotation Yrotation
                      End Site
                      {
                        OFFSET -1.8737 -0.2304 -0.0886
                      }
                    }
                  }
                }
                JOINT RightHandPinky1
                {
                  OFFSET -7.9094 -0.601105 -3.4825
                  CHANNELS 3 Zrotation Xrotation Yrotation
                  JOINT RightHandPinky2
                  {
                    OFFSET -2.2874 -0.477005 -0.6314
                    CHANNELS 3 Zrotation Xrotation Yrotation
                    JOINT RightHandPinky3
                    {
                      OFFSET -1.6774 -0.349396 -0.4633
                      CHANNELS 3 Zrotation Xrotation Yrotation
                      End Site
                      {
                        OFFSET -1.4888 -0.4091 -0.3416
                      }
                    }
                  }
                }
                JOINT RightHandThumb1
                {
                  OFFSET -1.833 -1.38751 1.3896
                  CHANNELS 3 Zrotation Xrotation Yrotation
                  JOINT RightHandThumb2
                  {
                    OFFSET -3.41299 -1.12099 2.5732
                    CHANNELS 3 Zrotation Xrotation Yrotation
                    JOINT RightHandThumb3
                    {
                      OFFSET -2.24741 -0.804108 1.6192
                      CHANNELS 3 Zrotation Xrotation Yrotation
                      End Site
                      {
                        OFFSET -1.6527 -0.5689 1.1317
                      }
                    }
                  }
                }
              }
            }
          }
        }
      }
    }
  }
  JOINT RightUpLeg
  {
    OFFSET -9.1966 3.8861 -0.7581
    CHANNELS 3 Zrotation Xrotation Yrotation
    JOINT RightLeg
    {
      OFFSET -0.7359 -41.0265 0
      CHANNELS 3 Zrotation Xrotation Yrotation
      JOINT RightFoot
      {
        OFFSET 0 -40.2855 0
        CHANNELS 3 Zrotation Xrotation Yrotation
        JOINT RightToeBase
        {
          OFFSET 0 -5.6122 11.7359
          CHANNELS 3 Zrotation Xrotation Yrotation
          End Site
          {
            OFFSET 0 0 7.8731
          }
        }
      }
    }
  }
  JOINT LeftUpLeg
  {
    OFFSET 9.1965 3.8864 -0.7581
    CHANNELS 3 Zrotation Xrotation Yrotation
    JOINT LeftLeg
    {
      OFFSET 0.7359 -41.0268 0
      CHANNELS 3 Zrotation Xrotation Yrotation
      JOINT LeftFoot
      {
        OFFSET 0 -40.2855 0
        CHANNELS 3 Zrotation Xrotation Yrotation
        JOINT LeftToeBase
        {
          OFFSET 0 -5.6122 11.7359
          CHANNELS 3 Zrotation Xrotation Yrotation
          End Site
          {
            OFFSET 0 0 7.8731
          }
        }
      }
    }
  }
}
MOTION
Frames:	6
Frame Time:	0.0333333
5.84602e-005 68.8428 3.50346 0 0 -0 0 0 -0 0 0 -0 0 0 -0 0 0 -0 0 0 -0 0 0 -0 0 0 -0 0 0 -0 0 0 -0 0 0 -0 0 0 -0 0 0 -0 0 0 -0 -0.0146107 -8.87603e-005 -2.63497e-007 2.99804e-018 -2.42657e-020 -1.42182e-022 0 0 -0 -0.0187562 -0.001176 5.858e-005 5.06224e-018 3.88251e-019 1.21329e-020 0 0 -0 -0.012269 -0.00324817 0.000675346 -1.74678e-018 3.88251e-019 -0 0 0 -0 0 0 -0 0 0 -0 0 0 -0 0 0 -0 0 0 -0 0 0 -0 0 0 -0 0 0 -0 0 0 -0 0 0 -0 0.0149955 -9.10982e-005 2.64101e-007 -9.69331e-018 1.21329e-020 -4.7394e-023 0 0 -0 0.0189956 -0.00119102 -5.96516e-005 -5.41541e-019 0 2.42657e-020 0 0 -0 0.0122698 -0.00324857 -0.000673756 -2.00796e-019 0 -1.94126e-019 0 0 -0 0 0 -0 0 0 -0 3.39842 1.33031 -0.0637918 -5.65207e-008 0.834868 -0.000436188 -3.39935 -2.16518 -0.0642563 -8.89002e-024 -1.18485e-023 -1.48106e-024 -3.39844 1.35642 0.0640283 -3.18788e-007 0.782166 -0.000588827 3.39931 -2.13858 0.0634662 1.1399e-023 0 -0 
-24.417 41.3702 5.38811 -1.91294e-015 4.81516e-015 133.333 0.111336 0.431217 -0.440611 0.225987 0.861578 -0.882104 0.225987 0.861578 -0.882083 6.66989 -1.66002 0.26192 1.74014e-007 11.1942 3.33529e-006 -15.5326 -9.6616 -0.0283087 -36.2885 3.95944 -50.7903 -37.4987 30.4203 -14.1917 -23.6071 3.36315 -6.43508 4.40548e-006 -4.63216e-006 5.41918e-007 -1.31286e-007 3.42078e-006 1.00342e-006 4.84139e-006 -5.6952e-006 4.49073e-007 4.40548e-006 -4.63216e-006 5.41918e-007 -0.0146016 -8.11914e-005 -7.60267e-007 4.40556e-006 -4.63223e-006 5.41325e-007 4.40548e-006 -4.63216e-006 5.41918e-007 -0.0187505 -0.00117384 5.38422e-005 4.40559e-006 -4.63224e-006 5.41115e-007 4.40548e-006 -4.63216e-006 5.41918e-007 -0.0122577 -0.00324143 0.000677566 4.40554e-006 -4.63222e-006 5.41294e-007 4.40548e-006 -4.63216e-006 5.41918e-007 -1.31286e-007 3.42078e-006 1.00342e-006 4.84139e-006 -5.6952e-006 4.49073e-007 -8.10662 -10.1422 -9.05818 40.6949 12.3028 63.1899 46.2359 4.86639 32.584 35.5553 -7.29581 17.2381 -2.64834e-031 -3.18055e-015 -4.77083e-015 -0 0 1.59028e-015 -3.18055e-015 0 3.18055e-015 -2.64834e-031 -3.18055e-015 -4.77083e-015 0.0149973 -0.000104207 -4.44865e-007 -3.18055e-015 -1.59028e-015 -0 -2.64834e-031 -3.18055e-015 -4.77083e-015 0.0190113 -0.00119877 -6.80197e-005 6.36111e-015 -6.36111e-015 -3.18055e-015 -2.64834e-031 -3.18055e-015 -4.77083e-015 0.0122715 -0.00325259 -0.00067667 6.36111e-015 3.18055e-015 -3.18055e-015 -2.64834e-031 -3.18055e-015 -4.77083e-015 -0 0 1.59028e-015 -3.18055e-015 0 3.18055e-015 -27.0112 -60.534 -38.0995 1.94298 38.7022 -0.669403 -5.50771 27.0853 -0.369315 1.56095e-007 -2.40435e-007 9.36477e-009 27.0035 -60.5346 38.0875 -1.94588 38.7031 0.667914 5.50223 27.0852 0.3711 1.32427e-007 -5.86705e-008 8.86108e-008 
-39.0483 28.8642 8.03394 -8.63487e-015 6.82757e-015 -166.667 0.169665 0.616736 -0.606817 0.345905 1.23173 -1.21557 0.345905 1.23173 -1.21557 9.66861 -1.43871 0.226393 -1.79351e-006 15.8137 -1.12342e-006 -22.5254 -14.0093 -0.041682 -50.9444 2.57799 -73.5993 -48.0247 42.6086 -24.1954 -33.9838 4.84256 -9.34839 -3.18055e-015 -3.18055e-015 2.38542e-015 3.18055e-015 -3.18055e-015 -1.59028e-015 6.36111e-015 -1.27222e-014 2.38542e-015 -3.18055e-015 -3.18055e-015 2.38542e-015 -0.0145516 -9.17364e-005 1.29513e-006 2.38542e-015 -3.18055e-015 -1.59028e-015 -3.18055e-015 -3.18055e-015 2.38542e-015 -0.0187925 -0.00117756 6.03158e-005 -1.82381e-007 -2.50535e-006 4.58692e-008 -3.18055e-015 -3.18055e-015 2.38542e-015 -0.0122506 -0.00324245 0.000673772 2.38542e-015 3.18055e-015 3.18055e-015 -3.18055e-015 -3.18055e-015 2.38542e-015 3.18055e-015 -3.18055e-015 -1.59028e-015 6.36111e-015 -1.27222e-014 2.38542e-015 -12.8266 -14.5023 -13.3606 54.7574 1.21209 88.4152 65.3755 5.6653 47.4566 52.9727 -10.0397 25.1988 -2.41071e-006 1.93978e-006 1.12792e-006 -1.05688e-007 -9.34e-007 8.42288e-007 -1.2582e-006 5.02888e-007 9.85105e-007 -2.41071e-006 1.93978e-006 1.12792e-006 0.0149773 -8.98999e-005 -7.15652e-007 -1.25816e-006 5.03017e-007 9.8504e-007 -2.41071e-006 1.93978e-006 1.12792e-006 0.0189985 -0.00118393 -5.71949e-005 -1.25814e-006 5.03048e-007 9.85034e-007 -2.41071e-006 1.93978e-006 1.12792e-006 0.0122393 -0.00324501 -0.000673608 -2.40952e-006 1.93957e-006 1.12772e-006 -2.41071e-006 1.93978e-006 1.12792e-006 -1.05688e-007 -9.34e-007 8.42288e-007 -1.2582e-006 5.02888e-007 9.85105e-007 -94.2909 -63.8386 -101.354 1.56685 55.247 0.9149 -4.98991 40.6084 -2.53894 2.43511e-014 5.56597e-015 -3.18055e-015 94.2882 -63.8368 101.361 -1.56994 55.2481 -0.917363 5.00352 40.6063 2.52046 -1.61255e-007 6.70582e-007 -3.17772e-006 
-35.7752 31.6478 7.19634 -7.01671e-015 7.01671e-015 180 0.156432 0.575969 -0.571632 0.318627 1.15035 -1.14492 0.318628 1.15035 -1.14492 9.00045 0.665043 -0.106648 2.96784e-006 13.8583 -6.15763e-007 -20.9713 -13.0432 -0.0386406 -47.6729 3.10363 -68.554 -46.408 40.1258 -21.2024 -31.691 4.51664 -8.69956 8.05949e-007 9.68611e-008 -2.62877e-007 3.41265e-007 -1.36327e-007 -2.53157e-007 1.59028e-015 1.59028e-014 -2.98177e-015 8.05949e-007 9.68611e-008 -2.62877e-007 -0.0145767 -8.54142e-005 -1.2367e-006 -1.78906e-015 3.18055e-015 -3.57812e-015 8.05949e-007 9.68611e-008 -2.62877e-007 -0.0187214 -0.00117212 5.89436e-005 7.95139e-016 3.18055e-015 2.5842e-015 8.05949e-007 9.68611e-008 -2.62877e-007 -0.0122781 -0.00324984 0.000676727 8.07596e-007 9.73223e-008 -2.6298e-007 8.05949e-007 9.68611e-008 -2.62877e-007 3.41265e-007 -1.36327e-007 -2.53157e-007 1.59028e-015 1.59028e-014 -2.98177e-015 -11.7186 -13.5507 -12.3859 51.2319 4.59644 83.3666 61.13 5.54319 44.3628 49.0308 -9.47446 23.4153 -2.37483e-006 6.9301e-008 -2.08775e-007 -3.02073e-006 1.81236e-007 3.32739e-007 -2.37483e-006 6.9301e-008 -2.08775e-007 -2.37483e-006 6.9301e-008 -2.08775e-007 0.0150191 -9.42236e-005 8.52668e-007 -2.37478e-006 6.92733e-008 -2.08782e-007 -2.37483e-006 6.9301e-008 -2.08775e-007 0.0190081 -0.001188 -5.9696e-005 -2.37477e-006 6.92612e-008 -2.08762e-007 -2.37483e-006 6.9301e-008 -2.08775e-007 0.012233 -0.00323901 -0.000672683 -2.3748e-006 6.92541e-008 -2.08718e-007 -2.37483e-006 6.9301e-008 -2.08775e-007 -3.02073e-006 1.81236e-007 3.32739e-007 -2.37483e-006 6.9301e-008 -2.08775e-007 -79.3623 -66.3812 -87.2948 1.76921 51.5806 0.663409 -4.489 37.6639 -2.7886 -9.84412e-008 4.15024e-007 -1.36556e-008 79.3708 -66.3631 87.3419 -1.77236 51.5812 -0.664998 4.54373 37.6582 2.72993 -5.96354e-016 -5.96354e-016 -0 
-35.7752 31.6478 7.19633 -7.01671e-015 7.01671e-015 180 0.156432 0.575969 -0.571631 0.318628 1.15035 -1.14492 0.318628 1.15035 -1.14492 9.008 2.43649 -0.387394 -3.76952e-006 13.0976 1.1444e-006 -20.9713 -13.0432 -0.0386412 -47.6729 3.10362 -68.554 -46.6023 40.1836 -20.8753 -31.691 4.51664 -8.69955 2.38542e-015 1.27222e-014 1.98785e-016 1.78608e-006 2.79214e-006 -1.1942e-006 8.26601e-007 1.13654e-007 -2.85083e-007 2.38542e-015 1.27222e-014 1.98785e-016 -0.0146248 -8.99533e-005 4.96463e-007 2.98177e-015 9.54166e-015 4.96962e-015 2.38542e-015 1.27222e-014 1.98785e-016 -0.0187778 -0.00117546 5.64242e-005 4.77083e-015 3.18055e-015 1.39149e-015 2.38542e-015 1.27222e-014 1.98785e-016 -0.0122509 -0.00324081 0.000672343 -1.98785e-016 -6.36111e-015 -1.19271e-015 2.38542e-015 1.27222e-014 1.98785e-016 1.78608e-006 2.79214e-006 -1.1942e-006 8.26601e-007 1.13654e-007 -2.85083e-007 -11.7186 -13.5507 -12.3859 51.2319 4.59645 83.3666 61.0886 5.50094 44.5368 49.0308 -9.47448 23.4153 -1.2928e-006 2.25543e-007 1.08167e-006 -6.46401e-007 1.12771e-007 5.40833e-007 -1.00395e-006 9.72341e-006 -4.33824e-007 -1.2928e-006 2.25543e-007 1.08167e-006 0.0149793 -9.68721e-005 3.85957e-007 -1.00404e-006 9.72336e-006 -4.35094e-007 -1.2928e-006 2.25543e-007 1.08167e-006 0.0190326 -0.00119763 -6.02078e-005 -1.00407e-006 9.72335e-006 -4.35428e-007 -1.2928e-006 2.25543e-007 1.08167e-006 0.0123041 -0.0032629 -0.00067882 -1.00409e-006 9.72338e-006 -4.34835e-007 -1.2928e-006 2.25543e-007 1.08167e-006 -6.46401e-007 1.12771e-007 5.40833e-007 -1.00395e-006 9.72341e-006 -4.33824e-007 -79.3139 -66.5734 -86.9042 1.76948 51.584 0.669204 -4.01043 37.6989 -3.26085 -9.83551e-008 4.15037e-007 -1.37951e-008 79.3315 -66.5402 86.9861 -1.77261 51.5842 -0.670357 4.10325 37.6905 3.16491 -3.97569e-016 -5.96354e-016 -6.36111e-015 
-35.7752 31.6478 7.19631 -7.01671e-015 7.01671e-015 180 0.156432 0.575969 -0.571631 0.318628 1.15035 -1.14492 0.318628 1.15035 -1.14492 9.02423 4.2147 -0.669928 -2.65131e-007 12.3363 2.99558e-008 -20.9713 -13.0432 -0.0386411 -47.6729 3.10362 -68.554 -46.7973 40.2406 -20.5476 -31.691 4.51664 -8.69955 3.86135e-007 -1.42149e-007 7.42737e-007 3.64702e-006 2.45952e-006 -1.20844e-006 1.23339e-006 -1.16976e-008 4.3545e-007 3.86135e-007 -1.42149e-007 7.42737e-007 -0.0145731 -8.94169e-005 -7.84646e-007 3.86147e-007 -1.42243e-007 7.42719e-007 3.86135e-007 -1.42149e-007 7.42737e-007 -0.0187654 -0.00117517 5.70101e-005 3.86158e-007 -1.4227e-007 7.4271e-007 3.86135e-007 -1.42149e-007 7.42737e-007 -0.0123062 -0.00325929 0.000678044 -4.62736e-007 -2.73146e-007 1.0501e-006 3.86135e-007 -1.42149e-007 7.42737e-007 3.64702e-006 2.45952e-006 -1.20844e-006 1.23339e-006 -1.16976e-008 4.3545e-007 -11.7186 -13.5507 -12.3859 51.2319 4.59645 83.3666 61.0473 5.45854 44.7107 49.0308 -9.47446 23.4152 -1.2938e-006 2.27214e-007 1.0803e-006 -1.88872e-006 6.44513e-006 1.09909e-006 -2.33908e-006 3.84651e-006 1.16474e-006 -1.2938e-006 2.27214e-007 1.0803e-006 0.0150131 -9.02014e-005 1.19952e-006 -2.34101e-006 3.84667e-006 1.16424e-006 -1.2938e-006 2.27214e-007 1.0803e-006 0.0189626 -0.00119277 -5.75487e-005 -1.94064e-006 3.41087e-007 1.62041e-006 -1.2938e-006 2.27214e-007 1.0803e-006 0.0122626 -0.00324584 -0.00067571 -2.34064e-006 3.84704e-006 1.16448e-006 -1.2938e-006 2.27214e-007 1.0803e-006 -1.88872e-006 6.44513e-006 1.09909e-006 -2.33908e-006 3.84651e-006 1.16474e-006 -79.2617 -66.7655 -86.5098 1.76974 51.5873 0.675068 -3.53113 37.7308 -3.73381 -4.91348e-008 2.07525e-007 -6.96723e-009 79.2888 -66.7172 86.6272 -1.77283 51.5871 -0.675784 3.66217 37.7202 3.60051 9.12363e-008 2.68861e-007 1.86708e-007 
